<svg width="571" height="390" viewBox="0 0 571 390" fill="none" xmlns="http://www.w3.org/2000/svg">
<path d="M390.69 33.306C390.69 33.306 302.756 11.9574 216.466 45.9498C130.177 79.9422 86.6207 147.42 49.2202 201.49C11.8197 255.559 33.3464 310.534 99.2283 335.603C165.11 360.672 209.911 323.7 302.333 321.914C394.755 320.128 419.605 329.16 496.302 293.483C572.998 257.806 586.851 173.605 526.359 111.29C465.867 48.9762 390.69 33.306 390.69 33.306Z" fill="#F9F3EC"/>
<path opacity="0.7" d="M390.69 33.306C390.69 33.306 302.756 11.9574 216.466 45.9498C130.177 79.9422 86.6207 147.42 49.2202 201.49C11.8197 255.559 33.3464 310.534 99.2283 335.603C165.11 360.672 209.911 323.7 302.333 321.914C394.755 320.128 419.605 329.16 496.302 293.483C572.998 257.806 586.851 173.605 526.359 111.29C465.867 48.9762 390.69 33.306 390.69 33.306Z" fill="white"/>
<path d="M157.596 24.1801V134.94H439.67V24.1801H157.596ZM429.735 128.7H167.532V30.4201H429.735V128.7Z" fill="#B2B2B2" stroke="#B2B2B2" stroke-linecap="round" stroke-linejoin="round"/>
<path d="M167.326 74.1001C167.326 74.1001 253.81 43.6021 260.193 51.3475C266.577 59.0929 222.622 78.9439 241.053 86.2057C259.485 93.4675 358.017 31.9801 375.718 46.5037C393.419 61.0273 343.822 99.7621 359.41 104.122C374.999 108.482 408.322 87.1729 415.368 92.5003C422.414 97.8277 404.028 119.129 411.828 122.031C419.628 124.933 428.832 119.613 428.832 119.613" stroke="#B2B2B2" stroke-linecap="round" stroke-linejoin="round"/>
<path d="M316.377 50.0103C318.823 42.9864 312.469 35.938 302.186 34.2672C291.902 32.5965 281.582 36.9361 279.136 43.96C276.69 50.984 283.044 58.0324 293.327 59.7031C303.611 61.3739 313.931 57.0343 316.377 50.0103Z" stroke="#B2B2B2" stroke-linecap="round" stroke-linejoin="round"/>
<path d="M206.738 43.1419C208.127 39.1078 204.464 35.0686 198.558 34.1202C192.652 33.1718 186.738 35.6732 185.349 39.7074C183.961 43.7415 187.623 47.7807 193.529 48.7291C199.436 49.6775 205.35 47.1761 206.738 43.1419Z" stroke="#B2B2B2" stroke-linecap="round" stroke-linejoin="round"/>
<path d="M231.13 95.4019C231.139 96.0729 230.856 96.7307 230.318 97.292C229.779 97.8534 229.009 98.2931 228.105 98.5556C227.201 98.8181 226.203 98.8915 225.238 98.7667C224.272 98.6418 223.383 98.3242 222.682 97.8541C221.981 97.384 221.499 96.7824 221.299 96.1255C221.098 95.4685 221.188 94.7857 221.555 94.1634C221.923 93.5411 222.552 93.0072 223.364 92.6293C224.176 92.2513 225.134 92.0463 226.116 92.0401C226.769 92.0359 227.416 92.1196 228.021 92.2864C228.626 92.4531 229.177 92.6996 229.642 93.0117C230.108 93.3239 230.479 93.6957 230.734 94.1058C230.989 94.5159 231.124 94.9563 231.13 95.4019Z" stroke="#B2B2B2" stroke-linecap="round" stroke-linejoin="round"/>
<path d="M407.694 54.4908C407.694 55.1079 407.426 55.7111 406.924 56.2242C406.422 56.7373 405.709 57.1372 404.874 57.3734C404.04 57.6095 403.121 57.6713 402.235 57.5509C401.349 57.4305 400.535 57.1334 399.896 56.697C399.257 56.2607 398.822 55.7047 398.646 55.0995C398.47 54.4943 398.56 53.867 398.906 53.2969C399.252 52.7268 399.837 52.2395 400.588 51.8967C401.339 51.5538 402.223 51.3708 403.126 51.3708C404.338 51.3708 405.499 51.6996 406.356 52.2847C407.213 52.8698 407.694 53.6634 407.694 54.4908Z" stroke="#B2B2B2" stroke-linecap="round" stroke-linejoin="round"/>
<path d="M337.39 123.063C343.718 120.948 346.337 115.729 343.24 111.408C340.143 107.086 332.502 105.297 326.175 107.412C319.847 109.528 317.228 114.746 320.325 119.068C323.422 123.39 331.063 125.179 337.39 123.063Z" stroke="#B2B2B2" stroke-linecap="round" stroke-linejoin="round"/>
<path d="M32.9011 193.44H542.233" stroke="#B2B2B2" stroke-linecap="round" stroke-linejoin="round"/>
<path d="M52.8862 203.869H542.233" stroke="#B2B2B2" stroke-linecap="round" stroke-linejoin="round"/>
<path d="M32.9011 203.869H42.9736" stroke="#B2B2B2" stroke-linecap="round" stroke-linejoin="round"/>
<path d="M534.114 221.933H375.238C375.158 223.694 374.058 225.36 372.18 226.566C370.302 227.773 367.8 228.421 365.223 228.368V343.473C367.798 343.421 370.299 344.068 372.176 345.272C374.054 346.477 375.155 348.142 375.238 349.9C375.237 350.27 375.184 350.638 375.079 351H532.058" stroke="#B2B2B2" stroke-linecap="round" stroke-linejoin="round"/>
<path d="M34.8767 221.933H89.7955C89.8148 222.792 90.0816 223.639 90.5805 224.427C91.0794 225.215 91.8006 225.928 92.7031 226.526C93.6056 227.124 94.6716 227.594 95.8402 227.91C97.0088 228.226 98.2571 228.382 99.5139 228.368V343.473C96.9777 343.446 94.5294 344.108 92.7071 345.313C90.8848 346.518 89.8376 348.168 89.7955 349.9C89.7986 350.269 89.8482 350.637 89.944 351H43.7843" stroke="#B2B2B2" stroke-linecap="round" stroke-linejoin="round"/>
<path d="M337.141 221.933H123.679C123.595 223.696 122.491 225.363 120.609 226.57C118.727 227.776 116.221 228.423 113.641 228.368V343.473C116.219 343.418 118.723 344.064 120.605 345.269C122.487 346.474 123.592 348.14 123.679 349.9C123.678 350.27 123.624 350.638 123.519 351H337.301C337.202 350.637 337.148 350.269 337.141 349.9C337.225 348.142 338.326 346.477 340.204 345.272C342.081 344.068 344.582 343.421 347.157 343.473V228.368C344.58 228.421 342.078 227.773 340.2 226.566C338.322 225.36 337.222 223.694 337.141 221.933Z" stroke="#B2B2B2" stroke-linecap="round" stroke-linejoin="round"/>
<path d="M525.103 86.8998C538.771 86.8998 549.85 79.3323 549.85 69.9972C549.85 60.6622 538.771 53.0946 525.103 53.0946C511.436 53.0946 500.356 60.6622 500.356 69.9972C500.356 79.3323 511.436 86.8998 525.103 86.8998Z" fill="white" stroke="#B2B2B2" stroke-linecap="round" stroke-linejoin="round"/>
<path d="M502.48 63.1801H547.749C545.814 60.1816 542.644 57.6322 538.625 55.8424C534.606 54.0526 529.912 53.0996 525.114 53.0996C520.317 53.0996 515.623 54.0526 511.604 55.8424C507.585 57.6322 504.415 60.1816 502.48 63.1801Z" fill="#636363" stroke="#636363" stroke-linecap="round" stroke-linejoin="round"/>
<path d="M525.332 49.9356V17.16" stroke="#636363" stroke-width="2" stroke-linecap="round" stroke-linejoin="round"/>
<path d="M527.707 48.36H522.5V54.288H527.707V48.36Z" fill="#636363" stroke="#636363" stroke-linecap="round" stroke-linejoin="round"/>
<path d="M59.1671 86.8998C72.8345 86.8998 83.9142 79.3323 83.9142 69.9972C83.9142 60.6622 72.8345 53.0946 59.1671 53.0946C45.4996 53.0946 34.4199 60.6622 34.4199 69.9972C34.4199 79.3323 45.4996 86.8998 59.1671 86.8998Z" fill="white" stroke="#B2B2B2" stroke-linecap="round" stroke-linejoin="round"/>
<path d="M36.5439 63.18H81.8014C79.8648 60.1838 76.6948 57.6366 72.6773 55.8485C68.6598 54.0604 63.9679 53.1084 59.1727 53.1084C54.3774 53.1084 49.6856 54.0604 45.668 55.8485C41.6505 57.6366 38.4806 60.1838 36.5439 63.18Z" fill="#636363" stroke="#636363" stroke-linecap="round" stroke-linejoin="round"/>
<path d="M59.3955 49.9356V17.16" stroke="#636363" stroke-width="2" stroke-linecap="round" stroke-linejoin="round"/>
<path d="M61.7708 48.36H56.5632V54.288H61.7708V48.36Z" fill="#636363" stroke="#636363" stroke-linecap="round" stroke-linejoin="round"/>
<path d="M477.847 181.74C477.847 181.74 478.441 232.877 478.441 246.379C478.441 259.88 477.847 340.759 477.847 340.759" stroke="#263238" stroke-width="3" stroke-linecap="round" stroke-linejoin="round"/>
<path d="M522.774 194.828L504.205 184.189L556.314 188.276L510.189 178.051L557.513 172.325H504.205L545.534 151.047L498.814 167.006L525.766 135.502L489.827 163.73L502.4 122.413L479.046 160.867L476.648 117.913L471.863 161.686L446.374 123.014L464.075 165.368L425.943 136.96L459.278 171.912L412.091 148.918L456.286 178.051L406.255 159.377L452.095 180.508L410.629 176.818L450.896 184.595L418.658 188.276L452.095 187.457L432.327 196.459L479.046 187.871L522.774 194.828Z" fill="#F9F3EC"/>
<path d="M522.774 306.361L504.205 295.729L556.314 299.816L510.189 289.591L557.513 283.865H504.205L545.534 262.587L498.814 278.546L525.766 247.042L489.827 275.27L502.4 233.953L479.046 272.407L476.648 229.453L471.863 273.226L446.374 234.554L464.075 276.908L425.943 248.508L459.278 283.452L412.091 260.458L456.286 289.591L406.255 270.917L452.095 292.048L410.629 288.358L450.896 296.135L418.658 299.816L452.095 298.997L432.327 307.999L479.046 299.411L522.774 306.361Z" fill="#F9F3EC"/>
<path d="M459.872 233.282C459.872 233.282 458.079 243.914 459.278 248.009C460.549 252.732 461.149 257.528 461.071 262.33C461.071 267.641 461.676 290.246 461.676 293.927C461.676 297.609 461.071 328.895 461.071 331.757V341.578" stroke="#263238" stroke-width="3" stroke-linecap="round" stroke-linejoin="round"/>
<path d="M461.676 289.84C461.676 289.84 464.074 258.64 466.461 254.553C468.848 250.466 470.664 251.69 471.258 246.753C471.852 241.816 471.852 239.803 473.051 238.173C474.006 236.714 474.807 235.21 475.449 233.672L476.648 230.404" stroke="#263238" stroke-width="3" stroke-linecap="round" stroke-linejoin="round"/>
<path d="M504.205 243.914L485.636 233.282L537.745 237.37L491.62 227.144L538.944 221.419H485.636L526.965 200.14L480.245 216.099L507.197 184.595L471.258 212.823L483.843 171.506L460.477 209.96L458.079 167.006L453.294 210.779L434.725 171.093L445.506 214.461L412.559 182.138L440.709 221.005L397.496 201.724L437.717 227.144L393.122 214.679L433.526 229.601L391.672 227.128L432.327 233.688L404.063 238.087L433.526 236.551L413.758 245.552L460.477 236.964L504.205 243.914Z" fill="#F9F3EC"/>
<path d="M443.473 329.979L430.648 344.581C429.675 345.689 429.037 346.919 428.775 348.199C428.512 349.479 428.628 350.781 429.118 352.03L434.828 366.53C435.231 367.56 436.122 368.469 437.362 369.117C438.601 369.764 440.119 370.114 441.68 370.11H500.082C501.642 370.114 503.161 369.764 504.4 369.117C505.64 368.469 506.53 367.56 506.934 366.53L512.644 352.03C513.136 350.782 513.255 349.479 512.992 348.198C512.729 346.918 512.09 345.688 511.113 344.581L498.3 329.979C497.867 329.491 497.257 329.088 496.528 328.808C495.8 328.528 494.979 328.38 494.143 328.38H447.664C446.822 328.374 445.992 328.518 445.257 328.799C444.522 329.079 443.907 329.486 443.473 329.979Z" fill="#263238" stroke="#263238" stroke-linejoin="round"/>
<path d="M404.633 122.85C404.633 122.85 404.907 114.223 405.775 112.874C406.643 111.524 408.859 109.426 410.549 109.044C413.134 108.516 415.667 107.875 418.132 107.125C420.585 105.739 422.929 104.265 425.155 102.71C425.155 102.71 429.643 101.93 429.929 102.905C430.214 103.88 423.465 108.085 423.465 108.085L426.274 108.865L441.12 109.06L449.822 103.108C449.822 103.108 452.906 101.767 452.632 103.108C452.357 104.45 443.918 111.93 443.084 111.93C442.251 111.93 417.801 118.069 417.801 118.069L414.991 125.549L404.633 122.85Z" fill="white" stroke="#263238" stroke-linecap="round" stroke-linejoin="round"/>
<path d="M431.31 114.223C431.31 114.223 437.203 113.069 438.048 112.109C438.893 111.15 445.071 102.749 445.631 102.133C446.191 101.517 442.548 101.946 441.143 102.133C439.738 102.32 435.798 110.573 435.798 110.573L429.62 111.914L431.31 114.223Z" fill="white" stroke="#263238" stroke-linecap="round" stroke-linejoin="round"/>
<path d="M433.434 112.757C433.434 112.757 439.555 112.499 440.675 111.688C441.794 110.877 450.507 103.545 451.238 103.069C451.969 102.593 448.28 102.422 446.853 102.406C445.425 102.391 438.973 109.855 438.973 109.855L432.509 110.261L433.434 112.757Z" fill="white" stroke="#263238" stroke-linecap="round" stroke-linejoin="round"/>
<path d="M409.681 117.671C409.681 117.671 409.407 113.833 413.05 111.914C416.693 109.996 428.216 109.808 428.216 109.808C428.216 109.808 433.834 102.328 435.239 102.328C436.644 102.328 440.012 101.369 439.738 102.328C439.464 103.288 436.084 107.125 434.679 109.044C433.275 110.963 432.715 113.451 431.31 114.223C429.906 114.995 421.763 116.329 421.763 116.329" fill="white"/>
<path d="M409.681 117.671C409.681 117.671 409.407 113.833 413.05 111.914C416.693 109.996 428.216 109.808 428.216 109.808C428.216 109.808 433.834 102.328 435.239 102.328C436.644 102.328 440.012 101.369 439.738 102.328C439.464 103.288 436.084 107.125 434.679 109.044C433.275 110.963 432.715 113.451 431.31 114.223C429.906 114.995 421.763 116.329 421.763 116.329" stroke="#263238" stroke-linecap="round" stroke-linejoin="round"/>
<path d="M400.134 129.184L403.229 122.086L417.264 123.622L413.895 132.444L400.134 129.184Z" fill="#F9F3EC" stroke="#263238" stroke-linecap="round" stroke-linejoin="round"/>
<path d="M343.742 121.508C343.742 121.508 356.098 123.809 358.348 126.688C360.598 129.566 379.406 150.283 380.537 151.648C381.668 153.013 382.501 154.144 382.501 154.144C382.501 154.144 396.262 131.313 396.822 129.964C397.381 128.614 402.155 128.24 403.56 128.24C404.964 128.24 417.88 128.817 418.406 131.118C418.931 133.419 402.109 177.138 400.431 178.113C398.752 179.088 394.252 179.455 391.443 178.893C388.634 178.331 351.838 165.633 351.838 165.633L343.742 121.508Z" fill="#F9F3EC" stroke="#263238" stroke-linecap="round" stroke-linejoin="round"/>
<path d="M382.444 154.12C380.56 157.254 379.074 160.492 378.002 163.8" stroke="#263238" stroke-linecap="round" stroke-linejoin="round"/>
<path d="M373.194 162.965C372.92 163.472 372.657 164.011 372.429 164.572" stroke="#263238" stroke-linecap="round" stroke-linejoin="round"/>
<path d="M378.253 156.998C376.727 158.208 375.445 159.551 374.439 160.992" stroke="#263238" stroke-linecap="round" stroke-linejoin="round"/>
<path d="M275.05 196.56L265.012 276.97L258.834 346.835C258.834 346.835 255.408 349.736 255.751 351.055C256.093 352.373 258.035 356.062 258.035 356.062C258.035 356.062 252.245 367.403 253.798 368.191C255.279 368.876 256.824 369.493 258.423 370.04H274.251C274.251 370.04 277.334 367.926 276.958 366.343C276.581 364.759 274.251 355.274 274.251 355.274C275.692 353.572 276.981 351.811 278.111 350.002C278.499 348.949 276.181 343.411 276.181 343.411L313.239 246.394C313.239 246.394 329.056 307.024 332.916 321.001C336.776 334.979 344.336 369.665 344.336 369.665H352.444L353.586 367.325C353.586 367.325 353.974 366.803 357.834 368.378C360.026 369.315 362.583 369.774 365.166 369.697H385.242C385.242 369.697 386.784 368.378 385.63 368.137C384.477 367.895 368.649 360.571 365.942 358.987C363.236 357.404 358.611 353.192 358.611 353.192C358.611 353.192 361.306 348.442 361.306 347.654C361.306 346.866 357.88 342.381 357.88 342.381L355.356 271.744L356.498 198.424L275.05 196.56Z" fill="#263238" stroke="#263238" stroke-linecap="round" stroke-linejoin="round"/>
<path d="M287.978 118.56L263.596 126.547L275.404 178.386L274.262 198.962C274.262 198.962 294.499 206.528 317.384 206.037C331.235 205.72 344.879 203.655 357.628 199.945L358.828 155.017C358.828 155.017 356.418 133.13 353.529 129.511C350.639 125.892 349.189 124.246 345.101 122.109C341.012 119.972 328.473 117.499 328.473 117.499C328.473 117.499 305.77 116.22 305.039 116.22C304.308 116.22 287.978 118.56 287.978 118.56Z" fill="#263238" stroke="#263238" stroke-linecap="round" stroke-linejoin="round"/>
<path d="M314.564 137.491L328.896 155.189L332.265 134.293L322.147 124.254L314.678 135.775L314.564 137.491Z" fill="#F9F3EC" stroke="#263238" stroke-linecap="round" stroke-linejoin="round"/>
<path d="M323.186 127.772L331.797 135.704L334.046 118.568L328.805 114.223L323.186 127.772Z" fill="#F9F3EC" stroke="#263238" stroke-linecap="round" stroke-linejoin="round"/>
<path d="M291.724 100.916L293.597 114.988L323.186 127.772L335.919 103.99L291.724 100.916Z" fill="white" stroke="#263238" stroke-linecap="round" stroke-linejoin="round"/>
<path d="M292.843 109.262C297.21 110.549 301.942 111.154 306.695 111.033C316.973 110.729 328.896 107.601 334.937 105.807L335.919 103.99L291.724 100.916L292.843 109.262Z" fill="#263238" stroke="#263238" stroke-linecap="round" stroke-linejoin="round"/>
<path d="M323.186 127.772L314.564 137.491L287.978 118.568L292.101 113.966L323.186 127.772Z" fill="#F9F3EC" stroke="#263238" stroke-linecap="round" stroke-linejoin="round"/>
<path d="M356.886 184.236C356.886 184.236 367.838 177.902 369.243 177.902C370.647 177.902 377.671 181.545 377.671 181.545C377.671 181.545 384.683 180.976 384.968 182.122C385.254 183.269 383.826 186.537 383.826 186.537L382.136 187.684C382.136 187.684 377.362 192.676 377.362 193.44C377.362 194.204 371.184 194.017 368.375 194.399C365.565 194.782 357.708 193.44 357.708 193.44L356.886 184.236Z" fill="white" stroke="#263238" stroke-linecap="round" stroke-linejoin="round"/>
<path d="M346.208 183.659L359.136 183.854L359.41 193.058L348.744 193.253L346.208 183.659Z" fill="white" stroke="#263238" stroke-linecap="round" stroke-linejoin="round"/>
<path d="M286.642 144.698C286.627 142.418 285.854 140.171 284.383 138.126C282.911 136.08 280.778 134.289 278.145 132.889C273.646 130.494 268.05 127.616 266.132 127.07C262.763 126.11 261.084 126.493 256.31 128.801C251.537 131.11 249.847 135.892 250.132 143.762C250.418 151.632 258.549 193.058 259.394 194.782C260.239 196.505 262.82 196.895 265.012 197.083C267.205 197.27 344.678 195.468 346.174 195.359C351.519 194.977 352.387 190.008 352.078 187.684C351.519 183.464 346.174 182.122 338.032 181.545C329.889 180.968 290.068 177.715 288.606 177.52C287.649 177.378 286.71 177.185 285.797 176.943C285.797 176.943 286.642 154.502 286.642 148.364C286.642 146.991 286.642 145.782 286.642 144.698Z" fill="#F9F3EC" stroke="#263238" stroke-linecap="round" stroke-linejoin="round"/>
<path d="M270.46 183.752C269.564 184.419 268.796 185.16 268.176 185.96" stroke="#263238" stroke-linecap="round" stroke-linejoin="round"/>
<path d="M285.831 176.943C281.603 178.175 277.605 179.746 273.92 181.623" stroke="#263238" stroke-linecap="round" stroke-linejoin="round"/>
<path d="M267.57 181.163C267.57 181.163 274.034 175.219 284.141 176.756" stroke="#263238" stroke-linecap="round" stroke-linejoin="round"/>
<path d="M410.971 81.7908H408.368V98.5374H410.971V81.7908Z" fill="white" stroke="#263238" stroke-linecap="round" stroke-linejoin="round"/>
<path d="M419.513 98.5374H399.825V99.3018H419.513V98.5374Z" fill="white" stroke="#263238" stroke-linecap="round" stroke-linejoin="round"/>
<path d="M409.669 83.3196C407.013 83.3072 404.472 82.5762 402.604 81.2867C400.735 79.9972 399.691 78.2543 399.7 76.44L401.641 64.038H417.698L419.696 76.44C419.701 77.3416 419.445 78.2351 418.943 79.0691C418.441 79.9031 417.704 80.6614 416.772 81.3004C415.841 81.9394 414.734 82.4467 413.515 82.7932C412.296 83.1397 410.99 83.3185 409.669 83.3196Z" fill="white" stroke="#263238" stroke-linecap="round" stroke-linejoin="round"/>
<path d="M442.582 55.0367L441.657 40.5599H433.766L432.818 55.0367C432.742 56.4282 432.357 57.8037 431.676 59.1161L427.108 67.6961C426.217 69.3578 425.761 71.1135 425.76 72.8831V100.877H449.742V72.8675C449.742 71.0979 449.286 69.3422 448.395 67.6805L443.827 59.1005C443.113 57.7968 442.693 56.4266 442.582 55.0367Z" fill="#263238" stroke="#263238" stroke-linecap="round" stroke-linejoin="round"/>
<path d="M448.486 75.9954H426.788V95.9946H448.486V75.9954Z" fill="white" stroke="#263238" stroke-linecap="round" stroke-linejoin="round"/>
<path d="M442.479 53.3052C442.474 53.2637 442.474 53.2219 442.479 53.1804L441.737 41.7222C441.719 41.4083 441.523 41.1116 441.191 40.8947C440.858 40.6777 440.415 40.5577 439.956 40.56H435.467C435.009 40.5616 434.569 40.6829 434.238 40.899C433.907 41.1151 433.709 41.4097 433.686 41.7222L432.955 53.1804C432.955 53.1804 432.955 53.2662 432.955 53.3052H442.479Z" fill="#8C8C8C" stroke="#263238" stroke-linecap="round" stroke-linejoin="round"/>
<path d="M485.235 102.328H378.79L373.171 99.255H491.973L485.235 102.328Z" fill="#8C8C8C" stroke="#263238" stroke-linecap="round" stroke-linejoin="round"/>
<path d="M301.682 178.136L302.059 223.743H358.028L359.136 183.854L301.682 178.136Z" fill="white" stroke="#263238" stroke-linecap="round" stroke-linejoin="round"/>
<path d="M318.618 70.2C320.569 70.5786 322.381 71.2362 323.932 72.1291C325.483 73.0219 326.739 74.1298 327.617 75.3792C331.043 79.8018 340.27 98.2332 340.555 100.729C340.841 103.225 336.901 103.997 332.402 105.916C327.902 107.835 313.284 109.372 305.131 107.476C296.977 105.581 295.287 102.484 295.287 102.484C295.287 102.484 292.192 104.98 286.288 102.289C280.383 99.5982 279.264 95.9556 281.514 94.6062C283.764 93.2568 287.418 94.419 287.418 94.419C287.418 94.419 281.229 84.045 281.788 80.379C282.348 76.713 282.633 73.086 291.632 70.59C300.631 68.094 318.618 70.2 318.618 70.2Z" fill="white" stroke="#263238" stroke-linecap="round" stroke-linejoin="round"/>
<path d="M318.869 78.4835C318.869 78.4835 320.011 80.9795 321.393 81.3695C322.775 81.7595 330.118 80.2151 330.677 82.3289C331.237 84.4427 328.393 87.8981 328.393 87.8981" stroke="#263238" stroke-linecap="round" stroke-linejoin="round"/>
<path d="M330.677 91.3535C330.677 91.3535 323.642 95.5733 316.619 91.7357" stroke="#263238" stroke-linecap="round" stroke-linejoin="round"/>
<path d="M305.097 84.63L312.965 82.7112" stroke="#263238" stroke-linecap="round" stroke-linejoin="round"/>
<path d="M310.43 76.947C310.43 76.947 304.252 74.607 301.157 78.8736" stroke="#263238" stroke-linecap="round" stroke-linejoin="round"/>
<path d="M318.618 76.5647C318.618 76.5647 321.427 73.1093 326.497 75.9875" stroke="#263238" stroke-linecap="round" stroke-linejoin="round"/>
<path d="M310.236 83.9982C310.373 84.2712 309.847 84.63 309.094 84.7782C308.34 84.9264 307.586 84.8718 307.461 84.5988C307.335 84.3258 307.837 83.967 308.603 83.8188C309.368 83.6706 310.099 83.7252 310.236 83.9982Z" fill="#263238" stroke="#263238" stroke-linecap="round" stroke-linejoin="round"/>
<path d="M285.134 91.3536C285.134 91.3536 286.813 95.3862 287.944 95.5733C289.074 95.7605 293.848 96.3533 293.562 94.4267C293.277 92.5001 288.229 85.7843 288.789 83.5067C289.348 81.2291 295.812 77.9375 294.407 76.5959C293.003 75.2543 290.753 75.4415 291.598 74.4821C292.443 73.5227 305.93 70.4495 311.012 70.4495C316.094 70.4495 318.321 70.2623 320.571 69.1079C322.82 67.9535 326.189 63.3437 315.786 63.1565C305.382 62.9693 288.241 67.7663 282.336 73.1405C276.432 78.5147 279.242 82.7423 280.92 84.8405C282.599 86.9387 285.134 91.3536 285.134 91.3536Z" fill="#263238" stroke="#263238" stroke-linecap="round" stroke-linejoin="round"/>
<path d="M324.088 131.648L312.782 130.003L315.112 138.107L324.511 133.201L334.983 136.453L333.053 128.177L324.088 131.648Z" fill="#263238" stroke="#263238" stroke-linecap="round" stroke-linejoin="round"/>
<path d="M199.427 172.216L203.116 185.008C203.116 185.008 205.103 186.943 211.624 188.908C218.145 190.874 221.274 189.29 221.274 186.194C221.274 183.097 218.99 166.429 218.99 166.429L199.427 172.216Z" fill="white" stroke="#263238" stroke-linecap="round" stroke-linejoin="round"/>
<path d="M200.592 176.857L219.744 173.285L219.001 166.405L199.427 172.216L200.592 176.857Z" fill="#263238" stroke="#263238" stroke-linecap="round" stroke-linejoin="round"/>
<path d="M98.2122 160.984L89.0762 178.62L95.9282 182.107C95.9282 182.107 101.638 182.497 105.293 180.749C108.947 179.002 118.06 164.674 118.06 164.674L98.2122 160.984Z" fill="white" stroke="#263238" stroke-linecap="round" stroke-linejoin="round"/>
<path d="M96.145 164.798L115.296 168.698L118.014 164.666L97.8809 160.376L96.145 164.798Z" fill="#263238" stroke="#263238" stroke-linecap="round" stroke-linejoin="round"/>
<path d="M168.411 262.899C168.411 262.899 171.06 285.628 171.06 290.542C171.06 295.456 168.034 306.298 169.918 312.242C171.803 318.185 178.244 336.523 178.244 342.467C178.244 348.41 173.333 359.003 175.96 361.07C178.586 363.137 183.531 363.652 185.038 365.75C186.546 367.848 187.322 368.332 189.96 369.112C192.598 369.892 203.196 370.399 205.469 369.892C207.741 369.385 206.611 368.082 202.819 364.432C199.028 360.781 190.337 353.839 188.83 350.743C187.322 347.646 196.767 322.842 197.144 312.523C197.52 302.203 196.767 289.013 196.767 289.013C196.767 289.013 201.689 265.762 201.689 261.113L168.411 262.899Z" fill="white" stroke="#263238" stroke-linecap="round" stroke-linejoin="round"/>
<path d="M169.37 271.44C180.025 271.022 190.581 269.816 200.855 267.844C201.358 264.826 201.7 262.322 201.7 261.105L168.411 262.915C168.411 262.915 168.845 266.643 169.37 271.44Z" fill="#263238" stroke="#263238" stroke-linecap="round" stroke-linejoin="round"/>
<path d="M196.024 283.826C196.024 283.826 195.648 290.542 192.244 294.154" stroke="#263238" stroke-linecap="round" stroke-linejoin="round"/>
<path d="M205.48 369.853C207.764 369.338 206.622 368.043 202.831 364.393C202.18 363.769 201.369 363.043 200.49 362.255C196.002 364.198 189.481 362.989 186.946 361.039C184.662 359.26 178.803 354.931 176.165 352.981C175.24 356.717 174.623 360.001 175.971 361.039C178.62 363.106 183.542 363.62 185.05 365.719C186.557 367.817 187.334 368.3 189.972 369.08C192.61 369.86 203.208 370.367 205.48 369.853Z" fill="#263238" stroke="#263238" stroke-linecap="round" stroke-linejoin="round"/>
<path d="M132.472 263.414C132.472 263.414 138.182 287.695 138.902 288.475C139.621 289.255 138.902 310.69 142.682 317.928C146.462 325.166 156.294 347.896 156.671 351.468C157.048 355.04 144.577 362.357 139.324 364.681C134.071 367.006 132.472 368.581 135.898 369.361C139.324 370.141 151.407 369.361 156.317 369.104C161.228 368.846 167.828 370.087 168.959 369.057C170.09 368.027 168.422 353.34 168.422 348.949C168.422 344.557 169.93 313.295 167.669 302.968C165.407 292.64 163.101 283.585 163.101 283.585L163.866 262.408L130.576 261.628L132.472 263.414Z" fill="white" stroke="#263238" stroke-linecap="round" stroke-linejoin="round"/>
<path d="M132.472 263.414C132.472 263.414 133.032 265.816 133.82 269.123C143.501 270.88 153.496 271.699 163.512 271.557L163.843 262.384L130.553 261.604L132.472 263.414Z" fill="#263238" stroke="#263238" stroke-linecap="round" stroke-linejoin="round"/>
<path d="M140.043 283.304C140.043 283.304 140.797 291.057 145.342 294.676" stroke="#263238" stroke-linecap="round" stroke-linejoin="round"/>
<path d="M168.948 369.034C169.381 368.636 169.37 366.358 169.199 363.441C163.306 364.018 152.902 363.652 152.902 363.652C150.253 360.032 146.05 361.585 146.05 361.585H145.274C143.358 362.706 141.344 363.748 139.244 364.705C133.945 367.045 132.392 368.605 135.818 369.385C139.244 370.165 151.109 370.11 156.02 369.853C160.931 369.595 167.874 370.063 168.948 369.034Z" fill="#263238" stroke="#263238" stroke-linecap="round" stroke-linejoin="round"/>
<path d="M114.326 242.744L113.184 263.671C113.184 263.671 138.913 268.577 160.851 268.843C182.788 269.108 211.533 262.899 211.533 262.899L210.014 239.905L115.079 238.875L114.326 242.744Z" fill="#F9F3EC" stroke="#263238" stroke-linecap="round" stroke-linejoin="round"/>
<path d="M133.328 182.294C133.328 182.294 112.053 219.234 106.754 247.135C106.754 247.135 137.771 253.079 168.422 252.049C199.073 251.02 217.22 245.333 217.22 245.333C217.22 245.333 207.764 202.433 192.096 184.618L133.328 182.294Z" fill="#263238" stroke="#263238" stroke-linecap="round" stroke-linejoin="round"/>
<path d="M174.086 69.9113C174.086 69.9113 172.568 63.1955 162.735 64.4903C152.902 65.7851 153.279 68.1095 151.772 70.4339C150.264 72.7583 128.692 75.5975 123.781 84.3803C118.871 93.1631 130.965 96.0101 130.965 100.659C130.965 105.308 115.833 108.927 119.236 114.348C122.639 119.769 135.121 120.806 133.991 122.616C132.86 124.426 123.781 127.296 130.565 131.399C137.348 135.502 168.011 139.667 184.239 137.6C200.467 135.533 204.669 126.75 201.643 123.911C198.617 121.072 196.344 119.777 198.617 116.891C200.889 114.005 212.606 111.212 208.826 103.459C205.046 95.7059 194.882 94.4579 195.282 90.0665C195.682 85.6751 206.999 82.8359 197.566 76.6349C188.133 70.4339 174.086 69.9113 174.086 69.9113Z" fill="#263238" stroke="#263238" stroke-linecap="round" stroke-linejoin="round"/>
<path d="M146.941 124.168L116.313 130.174L133.329 182.294C133.329 182.294 141.323 185.78 158.578 186.56C169.813 186.948 181.072 186.295 192.05 184.618L208.792 132.109L179.568 125.72L146.941 124.168Z" fill="white"/>
<path d="M141.003 125.33L139.861 125.549L151.909 186.092L153.051 186.202L141.003 125.33Z" fill="#F9F3EC"/>
<path d="M147.706 124.207L146.941 124.168L146.576 124.238L156.271 186.42L157.413 186.482L147.706 124.207Z" fill="#F9F3EC"/>
<path d="M155.723 124.582L154.581 124.527L161.639 186.662H162.781L155.723 124.582Z" fill="#F9F3EC"/>
<path d="M134.037 126.695L132.895 126.914L148.06 185.64L149.202 185.788L134.037 126.695Z" fill="#F9F3EC"/>
<path d="M126.762 128.123L143.127 184.86L144.349 185.071L127.904 127.92L126.762 128.123Z" fill="#F9F3EC"/>
<path d="M171.563 125.338L170.421 125.284L171.917 186.545L173.059 186.498L171.563 125.338Z" fill="#F9F3EC"/>
<path d="M137.406 183.612C137.794 183.721 138.216 183.83 138.662 183.94L121.669 129.121L120.527 129.34L137.406 183.612Z" fill="#F9F3EC"/>
<path d="M198.959 129.956L187.985 185.195L189.127 185.047L200.021 130.197L198.959 129.956Z" fill="#F9F3EC"/>
<path d="M205.126 131.313L203.984 131.071L190.006 184.891L191.148 184.712L205.126 131.313Z" fill="#F9F3EC"/>
<path d="M193.421 128.747L192.279 128.505L183.143 185.741L184.285 185.624L193.421 128.747Z" fill="#F9F3EC"/>
<path d="M179.694 125.744H179.568L178.563 125.689L174.361 186.42L175.503 186.357L179.694 125.744Z" fill="#F9F3EC"/>
<path d="M166.127 186.693H167.269L164.151 125.003L163.009 124.948L166.127 186.693Z" fill="#F9F3EC"/>
<path d="M186.306 127.195L185.164 126.945L179.123 186.108L180.265 186.014L186.306 127.195Z" fill="#F9F3EC"/>
<path d="M191.037 142.416L179.839 142.008C178.044 141.943 176.511 142.884 176.415 144.11L176.363 144.787C176.267 146.013 177.645 147.06 179.439 147.126L190.638 147.533C192.433 147.598 193.966 146.657 194.061 145.431L194.114 144.754C194.21 143.528 192.832 142.481 191.037 142.416Z" fill="#F9F3EC" stroke="#263238" stroke-linecap="round" stroke-linejoin="round"/>
<path d="M146.941 124.168L116.313 130.174L133.329 182.294C133.329 182.294 141.323 185.78 158.578 186.56C169.813 186.948 181.072 186.295 192.05 184.618L208.792 132.109L179.568 125.72L146.941 124.168Z" stroke="#263238" stroke-linecap="round" stroke-linejoin="round"/>
<path d="M150.127 109.645L150.778 120.65L162.164 126.672L173.516 120.596L178.072 110.378L163.021 113.459L150.127 109.645Z" fill="white" stroke="#263238" stroke-linecap="round" stroke-linejoin="round"/>
<path d="M178.072 110.378L163.021 113.498L150.127 109.684L150.459 115.292C153.165 117.788 155.929 119.785 157.779 120.331C162.347 121.649 164.871 121.064 166.378 120.034C167.52 119.254 173.287 116.836 177.581 111.509L178.072 110.378Z" fill="#263238" stroke="#263238" stroke-linecap="round" stroke-linejoin="round"/>
<path d="M157.014 129.464L160.234 132.694L158.087 160.727L164.311 160.875L162.164 132.842L167.326 128.435L161.65 124.761L157.014 129.464Z" fill="#F9F3EC" stroke="#263238" stroke-linecap="round" stroke-linejoin="round"/>
<path d="M149.545 117.569L161.376 124.761L154.067 133.13L143.961 124.176L149.545 117.569Z" fill="white"/>
<path d="M144.44 123.607L154.867 132.218L155.483 131.508L145.045 122.897L144.44 123.607Z" fill="#F9F3EC"/>
<path d="M146.747 120.884L146.13 121.617L156.1 130.798L156.728 130.073L146.747 120.884Z" fill="#F9F3EC"/>
<path d="M149.853 117.757L149.545 117.569L148.974 118.248L159.56 126.298L157.961 127.624L148.209 119.153L147.604 119.878L157.859 128.786L160.451 125.814L149.853 117.757Z" fill="#F9F3EC"/>
<path d="M149.545 117.569L161.376 124.761L154.067 133.13L143.961 124.176L149.545 117.569Z" stroke="#263238" stroke-linecap="round" stroke-linejoin="round"/>
<path d="M174.852 117.569L161.65 124.761L169.815 133.13L181.098 124.176L174.852 117.569Z" fill="white"/>
<path d="M180.562 123.607L168.925 132.218L168.228 131.508L179.888 122.897L180.562 123.607Z" fill="#F9F3EC"/>
<path d="M177.992 120.884L178.678 121.617L167.532 130.798L166.835 130.073L177.992 120.884Z" fill="#F9F3EC"/>
<path d="M174.52 117.757L174.852 117.569L175.503 118.248L163.671 126.298L165.453 127.624L176.348 119.153L177.033 119.878L165.567 128.786L162.667 125.814L174.52 117.757Z" fill="#F9F3EC"/>
<path d="M174.852 117.569L161.65 124.761L169.815 133.13L181.098 124.176L174.852 117.569Z" stroke="#263238" stroke-linecap="round" stroke-linejoin="round"/>
<path d="M143.447 93.444C143.447 93.444 139.815 91.2912 138.308 93.7872C136.8 96.2832 142.613 102.742 144.326 102.453C146.039 102.164 144.977 93.7872 144.977 93.7872L143.447 93.444Z" fill="white" stroke="#263238" stroke-linecap="round" stroke-linejoin="round"/>
<path d="M186.58 93.7326C186.58 93.7326 190.589 91.9152 191.616 94.5126C192.644 97.11 185.667 103.015 184.022 102.57C182.378 102.125 185.004 93.9276 185.004 93.9276L186.58 93.7326Z" fill="white" stroke="#263238" stroke-linecap="round" stroke-linejoin="round"/>
<path d="M156.363 73.5305C156.363 73.5305 146.267 75.7379 144.76 81.8999C143.39 87.4925 142.819 97.7574 144.326 102.453C145.833 107.149 155.746 117.133 160.234 118.451C164.722 119.769 167.326 119.184 168.833 118.154C170.341 117.125 179.785 113.311 183.439 103.771C187.094 94.2317 186.671 87.1884 184.307 79.989C182.846 75.5508 167.326 70.1531 156.363 73.5305Z" fill="white" stroke="#263238" stroke-linecap="round" stroke-linejoin="round"/>
<path d="M184.308 79.989C182.846 75.5508 167.326 70.1531 156.363 73.5305C156.363 73.5305 146.268 75.7379 144.76 81.8999C143.923 85.7219 143.485 89.5796 143.447 93.444C143.949 92.2584 144.669 90.3239 145.4 87.7733C146.69 83.2181 149.488 79.5521 154.216 79.2557C158.944 78.9593 160.874 80.4335 168.616 80.1371C176.359 79.8407 178.894 79.4039 182.149 81.8999C185.404 84.3959 184.947 92.6171 185.804 94.9649C186.518 89.9508 186.012 84.8904 184.308 79.989Z" fill="#263238" stroke="#263238" stroke-linecap="round" stroke-linejoin="round"/>
<path d="M167.543 97.8977L167.109 101.275C167.109 101.275 169.473 102.305 168.833 103.483C168.194 104.66 165.602 105.237 164.528 104.504" stroke="#263238" stroke-linecap="round" stroke-linejoin="round"/>
<path d="M157.653 108.178C157.653 108.178 162.815 110.081 166.252 109.793C168.679 109.475 170.96 108.769 172.91 107.734" stroke="#263238" stroke-linecap="round" stroke-linejoin="round"/>
<path d="M157.87 96.5094C157.87 97.4376 157.242 98.1942 156.466 98.1942C155.689 98.1942 155.072 97.4142 155.072 96.5094C155.072 95.6046 155.7 94.8168 156.466 94.8168C157.231 94.8168 157.87 95.5734 157.87 96.5094Z" fill="#263238"/>
<path d="M175.708 97.0163C175.708 97.9523 175.08 98.7089 174.315 98.7089C173.55 98.7089 172.91 97.9289 172.91 97.0163C172.91 96.1037 173.538 95.3315 174.315 95.3315C175.092 95.3315 175.708 96.0881 175.708 97.0163Z" fill="#263238"/>
<path d="M152.069 92.3208C152.069 92.3208 155.495 89.2008 161.525 91.1508" stroke="#263238" stroke-linecap="round" stroke-linejoin="round"/>
<path d="M170.329 91.7357C170.329 91.7357 176.131 89.0915 181.749 93.0539" stroke="#263238" stroke-linecap="round" stroke-linejoin="round"/>
<path d="M116.313 130.174L93.8953 161.951L121.703 166.795L125.106 157.88L116.313 130.174Z" fill="white"/>
<path d="M116.918 132.109L97.3442 162.552L98.4634 162.747L117.329 133.403L116.918 132.109Z" fill="#F9F3EC"/>
<path d="M118.54 137.225L118.117 135.876C112.681 145.088 105.555 156.936 101.592 163.293L102.734 163.48C107.177 156.406 114.839 143.52 118.54 137.225Z" fill="#F9F3EC"/>
<path d="M120.081 142.046L119.647 140.712L105.726 164.011L106.834 164.206L120.081 142.046Z" fill="#F9F3EC"/>
<path d="M123.93 160.937L125.106 157.88L125.038 157.661L118.802 166.288L119.933 166.483L123.93 160.937Z" fill="#F9F3EC"/>
<path d="M123.667 153.348L123.233 152.006L115.114 165.649L116.222 165.836L123.667 153.348Z" fill="#F9F3EC"/>
<path d="M121.749 147.303L121.315 145.953L110.215 164.79L111.322 164.985L121.749 147.303Z" fill="#F9F3EC"/>
<path d="M116.313 130.174L93.8953 161.951L121.703 166.795L125.106 157.88L116.313 130.174Z" stroke="#263238" stroke-linecap="round" stroke-linejoin="round"/>
<path d="M208.792 132.109L227.224 168.34L198.571 175.516L196.595 170.477L208.792 132.109Z" fill="white"/>
<path d="M202.305 152.513L201.86 153.91L211.841 172.193L212.903 171.928L202.305 152.513Z" fill="#F9F3EC"/>
<path d="M200.695 157.568L200.25 158.964L208.05 173.144L209.123 172.871L200.695 157.568Z" fill="#F9F3EC"/>
<path d="M199.382 161.71L198.925 163.145L204.578 174.01L205.651 173.745L199.382 161.71Z" fill="#F9F3EC"/>
<path d="M202.591 174.509L197.943 166.234L197.498 167.614L201.529 174.775L202.591 174.509Z" fill="#F9F3EC"/>
<path d="M206.691 138.715L206.234 140.166L221.365 169.814L222.439 169.541L206.691 138.715Z" fill="#F9F3EC"/>
<path d="M208.232 133.871L207.753 135.361L224.152 169.112L225.225 168.847L208.232 133.871Z" fill="#F9F3EC"/>
<path d="M205.457 142.576L205 144.027L218.465 170.539L219.527 170.266L205.457 142.576Z" fill="#F9F3EC"/>
<path d="M203.641 148.278L203.208 149.651L215.587 171.257L216.66 170.992L203.641 148.278Z" fill="#F9F3EC"/>
<path d="M208.792 132.109L227.224 168.34L198.571 175.516L196.595 170.477L208.792 132.109Z" stroke="#263238" stroke-linecap="round" stroke-linejoin="round"/>
<path d="M126.237 147.997L121.977 150.54L116.587 158.488L119.716 164.494C119.716 164.494 91.0632 175.734 89.3616 176.896C87.66 178.058 87.0776 185.999 90.7776 189.875C94.4777 193.752 110.066 182.122 110.066 182.122L135.601 158.683C135.601 158.683 141.836 153.644 140.169 152.287C138.502 150.93 137.051 149.947 136.195 149.947C135.338 149.947 133.363 150.142 133.363 150.142L126.237 147.997Z" fill="white" stroke="#263238" stroke-linecap="round" stroke-linejoin="round"/>
<path d="M126.819 142.475L133.329 151.679L135.887 152.264L128.658 141.898C128.596 141.807 128.507 141.726 128.396 141.661C128.284 141.595 128.154 141.547 128.013 141.52C127.872 141.493 127.724 141.486 127.579 141.502C127.434 141.517 127.295 141.554 127.173 141.609C126.975 141.702 126.831 141.84 126.767 141.998C126.702 142.156 126.721 142.325 126.819 142.475Z" fill="white" stroke="#263238" stroke-linecap="round" stroke-linejoin="round"/>
<path d="M118.014 154.783L123.119 164.666L138.719 166.6L143.538 164.666L138.148 153.426L118.014 154.783Z" fill="white" stroke="#263238" stroke-linecap="round" stroke-linejoin="round"/>
<path d="M134.185 156.718L113.755 155.555C113.755 155.555 110.922 154.198 114.611 152.646C116.623 151.726 119.082 151.379 121.463 151.679L135.932 152.264L134.185 156.718Z" fill="white" stroke="#263238" stroke-linecap="round" stroke-linejoin="round"/>
<path d="M143.538 162.529L138.97 152.646C138.97 152.646 134.402 151.679 133.009 153.426C132.757 153.691 132.587 153.989 132.508 154.3C132.429 154.612 132.443 154.931 132.55 155.238C132.657 155.546 132.853 155.836 133.129 156.09C133.404 156.344 133.751 156.558 134.151 156.718C134.996 157.108 137.828 155.75 137.828 155.75L140.957 163.691L143.538 162.529Z" fill="white" stroke="#263238" stroke-linecap="round" stroke-linejoin="round"/>
<path d="M220.132 181.327C220.791 183.229 221.079 185.183 220.988 187.138C220.988 191.038 219.572 193.924 215.884 193.924C212.195 193.924 196.595 190.804 189.503 188.3C182.412 185.796 153.759 176.093 153.759 176.093C153.759 176.093 143.538 175.313 140.706 174.931C136.972 174.308 133.422 173.253 130.211 171.811C127.367 170.453 125.951 166.577 125.951 166.577C125.951 166.577 120.846 164.447 120.846 163.457C120.846 162.466 134.745 164.424 137.303 164.424C139.861 164.424 143.538 162.482 143.538 162.482L142.122 158.8C142.122 158.8 147.227 160.157 148.643 161.32C150.059 162.482 155.175 169.073 156.02 169.845C156.865 170.617 179.568 177.06 191.205 177.84C202.842 178.62 214.182 179.774 214.182 179.774" fill="white"/>
<path d="M220.132 181.327C220.791 183.229 221.079 185.183 220.988 187.138C220.988 191.038 219.572 193.924 215.884 193.924C212.195 193.924 196.595 190.804 189.503 188.3C182.412 185.796 153.759 176.093 153.759 176.093C153.759 176.093 143.538 175.313 140.706 174.931C136.972 174.308 133.422 173.253 130.211 171.811C127.367 170.453 125.951 166.577 125.951 166.577C125.951 166.577 120.846 164.447 120.846 163.457C120.846 162.466 134.745 164.424 137.303 164.424C139.861 164.424 143.538 162.482 143.538 162.482L142.122 158.8C142.122 158.8 147.227 160.157 148.643 161.32C150.059 162.482 155.175 169.073 156.02 169.845C156.865 170.617 179.568 177.06 191.205 177.84C202.842 178.62 214.182 179.774 214.182 179.774" stroke="#263238" stroke-linecap="round" stroke-linejoin="round"/>
<path d="M28.1046 370.11H18.8887" stroke="#263238" stroke-linecap="round" stroke-linejoin="round"/>
<path d="M559.214 370.11H38.6338" stroke="#263238" stroke-linecap="round" stroke-linejoin="round"/>
</svg>
