<svg width="180" height="60" viewBox="0 0 180 60" fill="none" xmlns="http://www.w3.org/2000/svg">
<path d="M22.2623 2.97962C23.0253 3.18065 23.7825 3.39312 24.5365 3.61291C24.5365 3.69073 24.5365 3.76855 24.5365 3.84872C24.7113 3.88032 24.8862 3.91192 25.0663 3.94458C25.2474 3.99069 25.4286 4.03691 25.6152 4.08454C25.6661 4.20127 25.7169 4.318 25.7693 4.43827C25.8964 4.47718 26.0236 4.51609 26.1546 4.55618C26.2817 4.59509 26.4088 4.634 26.5398 4.67409C26.5907 4.79082 26.6415 4.90755 26.6939 5.02781C26.8052 5.05458 26.9164 5.08135 27.0311 5.10894C28.0181 5.46137 28.6206 6.39591 29.0054 7.15018C29.7093 8.77732 29.3449 10.0052 28.3812 11.5339C27.8979 12.2651 27.3838 12.9829 26.8449 13.6909C26.4993 14.1521 26.1999 14.6281 25.9042 15.109C25.8507 15.194 25.7972 15.2789 25.7422 15.3665C25.4237 15.8829 25.1834 16.3833 24.9988 16.9366C25.1719 16.9339 25.3449 16.9312 25.5231 16.9284C26.7294 16.9152 27.8366 16.9123 29.0054 17.1724C29.0054 17.2503 29.0054 17.3281 29.0054 17.4083C29.196 17.4119 29.196 17.4119 29.3907 17.4157C30.1442 17.57 30.6415 17.9133 31.1628 18.3515C31.1628 18.4294 31.1628 18.5072 31.1628 18.5874C31.3154 18.6263 31.4679 18.6652 31.6251 18.7053C32.7539 19.9738 32.75 21.3569 32.7038 22.8321C33.0097 22.8006 33.0097 22.8006 33.3202 22.7142C33.371 22.5974 33.4219 22.4807 33.4743 22.3604C33.7312 22.2818 33.9879 22.2033 34.2448 22.1246C34.2956 22.0079 34.3465 21.8912 34.3989 21.7709C34.774 21.5558 34.774 21.5558 35.2369 21.3362C35.4654 21.226 35.4654 21.226 35.6986 21.1137C36.094 20.9455 36.094 20.9455 36.4022 20.9455C36.4022 20.8677 36.4022 20.7899 36.4022 20.7097C37.2883 20.356 37.2883 20.356 37.635 20.356C37.635 20.2782 37.635 20.2003 37.635 20.1202C38.0392 19.9624 38.4437 19.8052 38.8485 19.6485C38.9635 19.6035 39.0786 19.5586 39.1971 19.5122C39.3073 19.4697 39.4176 19.4271 39.5312 19.3832C39.6329 19.3437 39.7344 19.3042 39.8392 19.2634C40.1006 19.1769 40.1006 19.1769 40.4088 19.1769C40.4088 19.0991 40.4088 19.0213 40.4088 18.9411C40.8831 18.7825 41.3585 18.6258 41.8342 18.4694C42.0359 18.402 42.0359 18.402 42.2418 18.3331C42.3718 18.2906 42.5019 18.248 42.636 18.2041C42.7554 18.1646 42.8748 18.1252 42.998 18.0844C43.3367 17.9978 43.3367 17.9978 43.9531 17.9978C43.9531 17.92 43.9531 17.8422 43.9531 17.762C44.1935 17.702 44.4343 17.6433 44.6755 17.5851C44.8095 17.5523 44.9436 17.5195 45.0817 17.4856C45.4931 17.4085 45.8429 17.3943 46.2646 17.4083C46.2646 17.3304 46.2646 17.2526 46.2646 17.1724C48.3694 16.8128 48.3694 16.8128 49.1635 16.745C49.6326 16.7422 49.6325 16.7422 49.8088 16.5829C50.8672 16.4395 51.9203 16.4389 52.9911 16.4367C53.3218 16.4355 53.6524 16.4319 53.9831 16.4282C55.1784 16.4211 56.2328 16.4855 57.3597 16.8187C57.5095 16.8556 57.6593 16.8926 57.8135 16.9306C57.9245 16.9594 58.0353 16.9882 58.1495 17.0177C58.2643 17.0473 58.3791 17.0769 58.4974 17.1075C58.5796 17.1289 58.6619 17.1504 58.7466 17.1724C58.7466 17.2503 58.7466 17.3281 58.7466 17.4083C58.8388 17.4229 58.9309 17.4375 59.0258 17.4525C59.363 17.5262 59.363 17.5262 59.8253 17.762C59.8253 17.8398 59.8253 17.9176 59.8253 17.9978C59.9423 18.0255 60.0594 18.0531 60.1799 18.0816C60.9758 18.3725 61.3195 19.0432 61.6474 19.6462C62.278 21.251 61.691 22.9506 60.7006 24.3833C59.7145 25.6606 59.7145 25.6606 59.0765 25.877C58.6383 25.9046 58.3019 25.8285 57.8798 25.7356C55.1858 25.1911 51.803 25.1901 49.1924 26.0156C49.0544 26.0568 48.9163 26.098 48.7741 26.1405C47.373 26.5701 45.9334 27.0453 44.679 27.6917C44.2613 27.9022 44.2613 27.9022 43.9531 27.9022C43.9022 28.0189 43.8514 28.1356 43.799 28.2559C43.4348 28.4802 43.4348 28.4802 42.9804 28.7202C42.5387 28.9543 42.1384 29.1725 41.7602 29.4649C41.4875 29.6708 41.4875 29.6708 41.1793 29.6708C41.117 29.777 41.117 29.777 41.0535 29.8854C40.8698 30.1442 40.7014 30.2855 40.4183 30.4814C39.7589 30.9658 39.2197 31.5153 38.6725 32.0733C38.4875 32.2591 38.2931 32.4394 38.0973 32.6185C37.9956 32.6185 37.8939 32.6185 37.7891 32.6185C37.7718 32.6854 37.7547 32.7521 37.7368 32.821C37.6217 33.1253 37.4522 33.3533 37.2371 33.6239C35.9162 35.3161 34.8093 36.8248 35.1694 38.8677C35.3247 39.1599 35.3247 39.1599 35.6317 39.3393C37.261 39.5708 38.4793 39.066 39.8056 38.4076C42.3198 37.0228 44.3297 35.1464 46.0573 33.2019C46.2545 32.9833 46.4592 32.7699 46.6655 32.5564C47.058 32.1375 47.3587 31.6965 47.6514 31.2331C47.7308 31.1089 47.7308 31.1089 47.8117 30.9824C47.9168 30.8172 48.0214 30.6519 48.1255 30.4864C48.2474 30.2928 48.3717 30.1001 48.4965 29.9076C48.9544 29.1789 49.2456 28.4469 49.5019 27.6627C49.7225 27.1575 49.7225 27.1575 50.117 26.9589C51.8183 26.6282 53.8797 26.733 55.5105 27.1947C55.5105 27.2725 55.5105 27.3504 55.5105 27.4305C55.6568 27.467 55.8028 27.5035 55.9536 27.5411C56.4351 27.6663 56.4351 27.6663 56.7433 27.7843C56.7433 27.8621 56.7433 27.9399 56.7433 28.0201C56.8305 28.0465 56.9178 28.073 57.0076 28.1003C57.9262 28.5063 58.85 29.4271 59.1511 30.2142C59.5091 31.9601 58.9936 33.4815 57.8288 34.9894C57.5072 35.4351 57.2608 35.908 57.0034 36.3769C56.9432 36.4861 56.8829 36.5952 56.8208 36.7079C56.6983 36.9301 56.5761 37.1524 56.4542 37.3749C56.3001 37.6539 56.1428 37.9316 55.9836 38.2091C55.2539 39.496 54.7286 40.8103 54.2777 42.1692C54.236 42.291 54.236 42.291 54.1933 42.4152C53.8422 43.4678 53.7706 44.4922 53.7576 45.5738C53.7555 45.6971 53.7533 45.8206 53.7512 45.9477C53.7595 46.9873 53.9863 47.8932 54.74 48.7721C54.74 48.8499 54.74 48.9277 54.74 49.0079C54.8417 49.0079 54.9434 49.0079 55.0482 49.0079C55.2536 49.1651 55.4592 49.3223 55.6646 49.4795C55.8172 49.5184 55.9697 49.5573 56.1269 49.5974C56.1269 49.6753 56.1269 49.7531 56.1269 49.8332C56.6438 49.8367 57.1606 49.8388 57.6775 49.8407C57.8228 49.8416 57.9681 49.8426 58.1179 49.8436C59.1579 49.8463 60.1415 49.8231 61.1256 49.5385C61.774 49.3636 62.3775 49.2913 63.0614 49.2437C63.0614 49.1659 63.0614 49.0881 63.0614 49.0079C63.2892 48.985 63.5172 48.9631 63.7453 48.9416C63.8721 48.9292 63.9991 48.917 64.1299 48.9042C64.235 48.8995 64.34 48.8948 64.4483 48.89C64.6024 49.0079 64.6024 49.0079 64.6277 49.2778C64.6018 49.605 64.5207 49.8141 64.352 50.1133C64.1102 50.5498 63.8798 50.9879 63.659 51.4309C63.2465 52.2485 62.7615 52.9892 62.1368 53.7242C62.0545 53.8294 61.9724 53.9346 61.8876 54.043C61.3364 54.7387 60.7257 55.3381 59.9968 55.9304C59.6587 56.2026 59.6587 56.2026 59.3407 56.5292C59.1992 56.6583 59.1992 56.6583 59.0548 56.7899C58.9531 56.7899 58.8514 56.7899 58.7466 56.7899C58.7084 56.8652 58.6703 56.9407 58.631 57.0184C58.4384 57.2615 58.4384 57.2615 58.1207 57.3279C58.022 57.3449 57.9236 57.3619 57.822 57.3794C57.7712 57.4962 57.7203 57.6129 57.6679 57.7332C56.7482 58.3331 55.6825 58.7699 54.5859 59.1481C54.4606 59.1918 54.3352 59.2357 54.2061 59.2807C53.3752 59.5539 52.5755 59.7064 51.6815 59.8089C51.3538 59.8302 51.3538 59.8302 51.1957 59.9734C50.751 59.9885 50.3115 59.9952 49.8666 59.9956C49.7441 59.997 49.6215 59.9984 49.4952 60C47.6709 60.0034 46.0975 59.4512 44.7236 58.5585C44.6203 58.4934 44.5169 58.4285 44.4106 58.3614C42.5606 57.0875 41.6511 54.8753 41.4875 53.0168C41.3905 51.4806 41.4645 49.9611 41.6896 48.4331C41.7078 48.3093 41.726 48.1855 41.7447 48.0579C41.8609 47.346 42.0453 46.6708 42.3097 45.9823C42.4301 45.6577 42.5071 45.3332 42.5662 44.999C42.4645 44.999 42.3628 44.999 42.258 44.999C42.2056 45.1267 42.2056 45.1267 42.1519 45.257C41.9077 45.6576 41.6013 45.8776 41.1793 46.1781C41.0426 46.2875 40.9059 46.3969 40.765 46.5097C40.4088 46.7676 40.4088 46.7676 40.1006 46.7676C40.0624 46.843 40.0243 46.9184 39.985 46.9961C39.7924 47.2392 39.7924 47.2392 39.4746 47.3056C39.376 47.3226 39.2775 47.3396 39.176 47.3572C39.1251 47.4739 39.0743 47.5906 39.0219 47.7109C38.5596 47.9467 38.5596 47.9467 38.0973 47.9467C38.0973 48.0245 38.0973 48.1023 38.0973 48.1825C37.6496 48.4233 37.4191 48.5363 36.8645 48.5363C36.8645 48.6141 36.8645 48.6919 36.8645 48.7721C35.8536 49.1378 34.8529 49.4668 33.7825 49.7153C33.6045 49.7591 33.4265 49.8029 33.2431 49.848C30.5131 50.3702 28.0259 49.9502 25.6152 48.89C25.2118 48.6702 24.8886 48.4519 24.5365 48.1825C24.5365 48.1047 24.5365 48.0269 24.5365 47.9467C24.3974 47.9006 24.3974 47.9006 24.2554 47.8537C23.6677 47.6034 23.3646 47.188 22.9955 46.7676C22.9057 46.6666 22.816 46.5655 22.7234 46.4613C21.5216 45.0081 20.973 43.3258 20.9609 41.6146C20.96 41.5159 20.9591 41.4174 20.9583 41.3157C20.9568 41.1068 20.9559 40.8979 20.9552 40.6889C20.9537 40.3769 20.9489 40.065 20.9441 39.753C20.93 38.0472 21.108 36.3496 21.8783 34.7336C21.9174 34.6477 21.9566 34.5619 21.9968 34.4735C22.8061 32.7291 23.7327 31.0501 25.0578 29.4967C25.2554 29.2607 25.4341 29.0263 25.6057 28.7792C26.0288 28.2004 26.6085 27.7057 27.1562 27.1947C27.3715 26.986 27.5866 26.7772 27.8016 26.5684C28.2284 26.1596 28.6622 25.7848 29.1595 25.4261C29.2453 25.3556 29.3312 25.2851 29.4196 25.2124C29.6218 25.0723 29.6218 25.0723 29.93 25.0723C29.9809 24.9167 30.0317 24.7611 30.0841 24.6007C30.002 24.6196 29.9197 24.6384 29.8351 24.6579C29.3916 24.7312 28.9747 24.74 28.5208 24.7476C28.3323 24.7514 28.1437 24.7551 27.9494 24.7589C27.748 24.7626 27.5467 24.7664 27.3393 24.7703C25.8404 24.8023 24.3456 24.8496 22.851 24.9471C22.7092 24.9559 22.5673 24.9647 22.421 24.9738C21.6496 25.0277 20.9609 25.1325 20.2217 25.3082C19.9501 25.3338 19.9501 25.3338 19.6728 25.3598C18.8213 25.6559 18.6043 26.2139 18.2184 26.841C18.14 26.9562 18.0616 27.0714 17.9807 27.1901C17.6886 27.62 17.4116 28.0541 17.1397 28.4917C17.0792 28.5891 17.0186 28.6866 16.9562 28.787C15.0335 31.9176 13.4925 35.226 12.6709 38.6319C12.6391 38.7601 12.6074 38.8882 12.5747 39.0203C11.7712 42.3716 11.1061 47.0191 13.711 50.0267C13.9037 50.3049 13.9037 50.3049 13.8556 50.6366C13.8206 50.7216 13.7856 50.8067 13.7496 50.8944C11.4661 51.5137 8.77399 51.5228 6.56112 50.7494C5.84409 50.4597 5.2542 50.1329 4.65768 49.7153C4.53933 49.6412 4.42083 49.567 4.29894 49.4906C3.47158 48.9624 2.89725 48.4156 2.34619 47.7109C2.26698 47.6173 2.18762 47.5236 2.10595 47.4272C1.09968 46.2136 0.696244 44.9445 0.317005 43.5541C0.220384 43.137 0.220384 43.137 0.0346941 42.8766C-0.00306027 42.4253 0.00618625 41.9728 0.00587805 41.5207C0.00387476 41.3966 0.00202525 41.2726 2.19572e-05 41.1449C-0.00182724 40.3522 0.113131 39.6384 0.342893 38.8677C0.397599 38.6464 0.451225 38.4248 0.503619 38.2031C0.99535 36.1933 1.63409 34.2321 2.64714 32.3361C2.82112 32.0049 2.98401 31.6714 3.14504 31.3363C3.20206 31.2178 3.25923 31.0992 3.31809 30.977C3.43413 30.7352 3.54971 30.4932 3.66482 30.2512C3.98874 29.581 4.34871 28.9441 4.77649 28.3092C5.09825 27.8181 5.37008 27.3127 5.64006 26.8042C5.69662 26.702 5.75333 26.5997 5.81158 26.4944C5.86428 26.3952 5.91683 26.296 5.97107 26.1939C6.01869 26.1057 6.0663 26.0175 6.11515 25.9266C6.21763 25.6018 6.16893 25.3906 6.04458 25.0723C5.79463 24.8672 5.79463 24.8672 5.47626 24.6966C4.29169 23.9444 3.65449 22.9266 3.42488 21.7709C3.29868 20.6115 3.31147 19.406 4.04128 18.3515C4.71763 17.8797 5.54437 17.9412 6.41056 17.9315C7.376 17.9175 8.19812 17.8695 9.12657 17.6441C9.4152 17.6174 9.70413 17.5927 9.99338 17.5704C10.5756 17.4912 10.5756 17.4912 11.0582 17.2498C11.2721 16.9969 11.4297 16.7396 11.5922 16.465C11.7349 16.25 11.8776 16.0351 12.0209 15.8204C12.1834 15.5749 12.3426 15.3283 12.501 15.0814C12.7075 14.7597 12.9166 14.4391 13.1296 14.1197C13.9567 12.8764 14.7076 11.6096 15.4446 10.3337C15.5464 10.3337 15.6481 10.3337 15.7528 10.3337C15.7715 10.2505 15.7903 10.1671 15.8096 10.0814C15.9123 9.72555 16.0601 9.40554 16.2319 9.06573C16.2976 8.93567 16.3631 8.80574 16.4306 8.67168C16.5337 8.46934 16.5337 8.46934 16.6389 8.263C16.7053 8.1313 16.7716 7.99959 16.84 7.86388C17.1642 7.22328 17.4968 6.58669 17.8483 5.95446C18.2696 5.18711 18.5989 4.40266 18.9242 3.60901C18.9684 3.50407 19.0127 3.39914 19.0581 3.29101C19.1162 3.14976 19.1162 3.14976 19.1754 3.00579C19.5964 2.25141 21.5102 2.79132 22.2623 2.97962Z" fill="#000001"/>
<path d="M114.742 0.0366851C116.121 0.0474148 117.377 0.251044 118.695 0.547231C118.695 0.625051 118.695 0.702871 118.695 0.783049C118.829 0.795194 118.962 0.807339 119.1 0.819955C121.023 1.11956 122.959 2.3345 124.042 3.55391C124.844 4.62264 124.978 5.74855 124.576 6.94521C123.621 9.38947 123.621 9.38947 122.856 10.3337C122.687 10.6201 122.523 10.906 122.365 11.196C122.323 11.272 122.281 11.3481 122.237 11.4265C122.135 11.6123 122.033 11.7983 121.931 11.9844C121.83 11.9844 121.728 11.9844 121.623 11.9844C121.572 12.1206 121.522 12.2568 121.469 12.3971C120.883 13.7376 119.895 14.9936 119.026 16.2367C118.757 16.6224 118.492 17.0092 118.238 17.4009C117.901 17.9191 117.547 18.4299 117.193 18.941C116.544 19.8799 115.916 20.8253 115.3 21.7771C115.149 22.0094 114.997 22.2412 114.844 22.4728C114.249 23.3749 113.672 24.2818 113.115 25.198C112.872 25.597 112.624 25.9928 112.365 26.3855C112.118 26.7597 111.899 27.1376 111.693 27.5264C111.388 28.0954 111.066 28.6566 110.73 29.2153C110.63 29.3824 110.63 29.3824 110.528 29.5529C110.482 29.6288 110.436 29.7046 110.389 29.7828C109.976 30.4775 109.629 31.1847 109.295 31.9037C108.999 32.5395 108.701 33.1722 108.362 33.7957C108.03 34.424 107.802 35.0656 107.581 35.721C107.504 35.9466 107.427 36.1721 107.349 36.3976C107.315 36.4957 107.282 36.5938 107.248 36.6948C107.138 36.9811 107.138 36.9811 106.981 37.277C106.832 37.5655 106.745 37.8325 106.67 38.1367C106.644 38.2423 106.618 38.3478 106.591 38.4566C106.565 38.5655 106.539 38.6744 106.512 38.7867C106.485 38.8942 106.458 39.0017 106.431 39.1124C106.311 39.604 106.201 40.0929 106.127 40.5898C106.059 40.99 106.059 40.99 105.905 41.1079C105.699 42.2784 105.721 43.4668 105.751 44.6452C105.754 44.7941 105.754 44.7941 105.757 44.946C105.8 46.7464 106.008 48.6072 107.176 50.2164C107.327 50.4847 107.241 50.6205 107.138 50.8944C104.315 51.4628 101.449 51.5096 98.8683 50.3611C98.4635 50.1652 98.0964 49.9583 97.7378 49.7153C97.5948 49.6326 97.4518 49.55 97.3043 49.4647C95.4602 48.2743 94.4532 46.6335 93.8853 44.881C93.8312 44.7454 93.7773 44.6098 93.7215 44.4702C93.2688 43.171 93.3783 41.7284 93.5771 40.4005C93.628 40.3616 93.6788 40.3227 93.7312 40.2826C93.7879 40.0897 93.8368 39.8955 93.8822 39.7008C94.236 38.2409 94.6496 36.8472 95.3141 35.4518C95.4624 35.1356 95.5981 34.8164 95.7339 34.4969C96.0139 33.8388 96.3184 33.1946 96.6645 32.5554C96.8352 32.2217 96.9782 31.8838 97.1214 31.5426C97.3285 31.0568 97.5694 30.6211 97.8822 30.1714C98.0973 29.8237 98.2567 29.4667 98.4215 29.1034C98.7573 28.3659 99.1518 27.6644 99.587 26.9589C99.9262 26.3885 100.249 25.8143 100.56 25.2344C100.9 24.6044 101.272 23.9885 101.653 23.3724C102.01 22.7922 102.334 22.2038 102.651 21.6101C102.844 21.2614 103.063 20.9275 103.291 20.5913C103.463 20.3188 103.605 20.0412 103.748 19.7591C104.003 19.2579 104.307 18.8106 104.672 18.3515C104.538 18.3857 104.538 18.3857 104.4 18.4206C103.639 18.6056 102.935 18.7247 102.139 18.7863C101.676 18.8347 101.676 18.8347 101.282 18.941C100.999 19.2977 100.929 19.4879 100.82 19.8843C100.701 20.1676 100.579 20.4502 100.454 20.7318C100.421 20.8085 100.387 20.8852 100.353 20.9642C100.087 21.5796 99.7907 22.184 99.481 22.7874C99.336 23.0732 99.1947 23.359 99.0572 23.6468C98.9996 23.7669 98.9996 23.7669 98.9407 23.8896C98.8333 24.1142 98.7264 24.339 98.6197 24.5639C98.2696 25.2598 97.8427 25.9302 97.4296 26.6051C97.2977 26.8223 97.1659 27.0396 97.0343 27.2569C96.8132 27.622 96.5916 27.9868 96.3702 28.3517C96.2779 28.5037 96.1856 28.6558 96.0933 28.8079C95.871 29.1741 95.6487 29.5404 95.4263 29.9066C95.3246 29.9066 95.2229 29.9066 95.1181 29.9066C95.1024 29.9895 95.0867 30.0722 95.0705 30.1576C94.9475 30.5485 94.7466 30.8444 94.492 31.1963C94.3948 31.331 94.2974 31.4658 94.1971 31.6047C94.0934 31.7462 93.9893 31.8876 93.8853 32.0289C93.8352 32.0973 93.7853 32.1658 93.7338 32.2362C92.6299 33.7445 91.4379 35.2101 90.206 36.6589C90.0304 36.866 89.8562 37.074 89.6819 37.2819C89.5721 37.4113 89.4622 37.5406 89.3489 37.6738C89.2506 37.7902 89.1523 37.9067 89.0511 38.0266C88.9682 38.1096 88.8854 38.1926 88.8 38.2781C88.6983 38.2781 88.5966 38.2781 88.4918 38.2781C88.4527 38.3832 88.4135 38.4882 88.3732 38.5964C88.1799 38.9931 87.9701 39.2315 87.6153 39.5531C87.5053 39.6546 87.3953 39.7561 87.2818 39.8607C87.1726 39.961 87.0633 40.0613 86.9508 40.1647C86.7667 40.3433 86.5836 40.5226 86.4018 40.7027C86.3135 40.7896 86.225 40.8765 86.134 40.9661C85.9627 41.136 85.7929 41.3066 85.6248 41.4783C84.9764 42.1334 84.2684 42.7373 83.5366 43.3376C83.2107 43.6055 82.8965 43.8797 82.5843 44.157C82.007 44.6641 81.3926 45.1382 80.7676 45.6106C80.6613 45.6914 80.5551 45.7722 80.4455 45.8554C80.2404 46.0113 80.0352 46.1669 79.8294 46.3225C79.5924 46.5026 79.3577 46.6847 79.1237 46.8671C78.1527 47.5929 78.1527 47.5929 77.5508 47.5929C77.5031 47.695 77.5031 47.695 77.4545 47.7993C77.1597 48.1683 76.7994 48.3111 76.318 48.5362C76.1577 48.6158 76.1577 48.6158 75.9941 48.6969C75.1259 49.1258 75.1259 49.1258 74.777 49.1258C74.777 49.2036 74.777 49.2814 74.777 49.3616C71.7928 50.4094 69.2083 50.7711 65.9933 49.9511C65.9933 49.8733 65.9933 49.7955 65.9933 49.7153C65.7903 49.698 65.7904 49.698 65.5834 49.6803C64.7264 49.5423 64.0889 49.1439 63.3736 48.772C63.2745 48.7258 63.1754 48.6796 63.0733 48.6321C62.1639 48.191 61.5571 47.5308 60.908 46.8855C60.8296 46.8123 60.7511 46.7389 60.6702 46.6635C59.3276 45.3548 59.2531 43.746 59.4837 42.1611C59.7259 40.6852 60.1329 39.2489 60.5998 37.8065C60.642 37.6742 60.6843 37.542 60.7277 37.4057C61.2381 35.8071 61.7674 34.2137 62.357 32.6311C62.5518 32.1054 62.7404 31.5784 62.9306 31.0517C63.1189 30.5327 63.3121 30.0147 63.5072 29.4971C63.8692 28.5294 64.2048 27.5565 64.5389 26.5831C65.2097 24.6332 65.2097 24.6332 65.4774 23.8725C65.5107 23.7783 65.5438 23.6839 65.5778 23.5868C65.6546 23.3844 65.7395 23.1839 65.83 22.985C66.04 22.4849 66.1947 21.9792 66.3496 21.4678C66.3827 21.3596 66.4157 21.2515 66.4497 21.1399C66.5194 20.9115 66.5887 20.6829 66.6579 20.4544C66.7627 20.1088 66.8686 19.7636 66.9744 19.4182C67.4408 17.8898 67.4408 17.8898 67.7721 16.3416C67.7953 16.2656 67.8186 16.1895 67.8425 16.1112C68.2841 15.9423 68.6703 15.9778 69.1619 15.9786C69.3433 15.9782 69.5246 15.978 69.7116 15.9776C70.154 15.9933 70.154 15.9933 70.3081 16.1112C70.5899 16.1466 70.8726 16.1777 71.1556 16.2071C72.042 16.316 72.7487 16.5095 73.5442 16.8187C73.6712 16.8624 73.798 16.9063 73.9288 16.9513C75.9321 17.6605 77.4175 18.941 78.3213 20.4739C79.0015 22.0784 78.825 23.6053 78.1194 25.1831C77.9929 25.4723 77.8733 25.7629 77.7542 26.0538C76.9706 27.9666 76.9706 27.9666 76.6069 28.7054C76.3109 29.3087 76.0777 29.9232 75.8444 30.5421C75.6258 31.122 75.3932 31.6974 75.1525 32.2722C74.8237 33.0632 74.5521 33.8607 74.2985 34.6676C74.207 34.951 74.1073 35.2329 73.9992 35.5128C73.5938 36.6367 73.4955 37.8259 73.3901 38.9856C74.382 38.6375 75.0711 38.1403 75.8557 37.5707C75.9514 37.5023 76.0472 37.4339 76.1458 37.3634C76.9462 36.7738 77.6289 36.1117 78.3213 35.4483C78.4284 35.3467 78.5355 35.2449 78.6456 35.1402C78.9498 34.8507 79.2523 34.5602 79.5541 34.2692C79.692 34.1366 79.692 34.1366 79.8328 34.0012C81.4785 32.4027 82.9046 30.6785 84.3311 28.9633C84.3953 28.8867 84.4592 28.8099 84.5253 28.7309C85.3935 27.6899 86.2031 26.6392 86.9508 25.5439C87.0627 25.3843 87.1749 25.2249 87.2874 25.0654C87.9545 24.1161 88.5851 23.1603 89.1691 22.1794C89.3463 21.8868 89.53 21.6032 89.7246 21.3176C90.0652 20.8005 90.2968 20.2662 90.5239 19.7149C90.9392 18.7191 90.9392 18.7191 91.1115 18.5873C91.183 18.2457 91.183 18.2457 91.1115 17.8799C90.8153 17.6447 90.8153 17.6447 90.4084 17.4746C89.6843 17.1198 89.0313 16.7471 88.4918 16.2291C88.4918 16.1513 88.4918 16.0735 88.4918 15.9933C88.4028 15.97 88.3138 15.9465 88.2222 15.9223C87.7408 15.6935 87.5252 15.3765 87.259 15.0058C87.1784 14.8946 87.1784 14.8946 87.0962 14.7813C86.2209 13.5403 85.913 12.3182 85.718 10.9232C85.6989 10.8111 85.6798 10.6988 85.6603 10.5833C85.5441 9.89235 85.5441 9.89235 85.718 9.62623C85.7596 9.37838 85.7976 9.1303 85.8336 8.88199C86.0019 7.92928 86.3895 7.06595 86.9508 6.20687C87.0525 6.20687 87.1542 6.20687 87.259 6.20687C87.2971 6.12174 87.3353 6.0366 87.3746 5.949C87.5927 5.57358 87.8224 5.33328 88.1836 5.02777C88.2587 4.96316 88.3339 4.89855 88.4112 4.83205C89.7387 3.81402 91.841 3.36726 93.683 3.355C94.5888 3.36031 95.4636 3.48222 96.3509 3.61287C96.3509 3.69069 96.3509 3.76851 96.3509 3.84868C96.5289 3.85847 96.7069 3.86814 96.8903 3.87816C98.2676 4.01364 99.6026 4.70977 100.512 5.49941C100.512 5.57723 100.512 5.65505 100.512 5.73523C100.653 5.77897 100.653 5.77897 100.798 5.82366C101.189 5.99828 101.287 6.13211 101.475 6.44268C101.526 6.52534 101.578 6.60811 101.631 6.69324C101.744 6.91432 101.744 6.91432 101.744 7.15014C101.846 7.15014 101.948 7.15014 102.053 7.15014C102.618 8.45115 102.857 9.5589 102.823 10.9232C103.077 10.8843 103.332 10.8454 103.594 10.8053C103.594 10.7275 103.594 10.6497 103.594 10.5695C103.711 10.5294 103.829 10.4892 103.95 10.4479C105.724 9.83386 107.467 9.15954 109.119 8.36932C109.327 8.2698 109.539 8.17477 109.756 8.08645C111.517 7.29882 111.877 4.81129 112.385 3.40051C112.688 2.45064 112.722 1.5563 112.687 0.585434C112.686 0.456088 112.686 0.326742 112.685 0.193504C113.09 -0.116007 114.199 0.0392791 114.742 0.0366851Z" fill="#000001"/>
<path d="M137.54 15.6278C141.494 15.5143 145.04 16.0322 148.026 18.1331C148.282 18.3514 148.282 18.3514 148.282 18.5872C148.435 18.6262 148.587 18.6651 148.745 18.7052C149.02 18.9755 149.02 18.9755 149.302 19.3167C149.444 19.4835 149.444 19.4835 149.589 19.6535C149.831 20.0142 149.92 20.3085 149.977 20.7096C150.079 20.7096 150.181 20.7096 150.286 20.7096C150.358 20.8616 150.427 21.0139 150.498 21.1665C150.537 21.2513 150.577 21.3362 150.617 21.4235C150.967 22.3502 151.102 23.2349 151.098 24.1976C151.098 24.3127 151.098 24.4277 151.098 24.5464C151.098 24.7882 151.098 25.03 151.096 25.272C151.095 25.6375 151.096 26.003 151.098 26.3685C151.099 27.8622 151.051 29.2989 150.44 30.7319C150.386 30.8607 150.332 30.9896 150.276 31.1224C150.131 31.4393 150.131 31.4393 149.977 31.6751C150.244 31.643 150.244 31.643 150.517 31.6102C151.99 31.4354 153.465 31.2817 154.947 31.1519C159.029 30.7884 150.545 32.2863 154.529 31.512C154.694 31.4799 153.898 31.2648 154.067 31.2318C160.573 29.9615 168.498 28.5111 173.962 25.4102C174.253 25.2628 174.253 25.2628 174.562 25.2628C174.613 25.1461 174.663 25.0294 174.716 24.9091C175.232 24.5221 175.742 24.238 176.449 24.1132C177.057 24.2401 177.16 24.5066 177.49 24.9091C177.591 25.0231 177.693 25.1371 177.798 25.2546C179.502 27.1751 180.191 28.8259 179.955 31.1583C179.739 31.9539 179.259 32.772 178.568 33.3986C178.467 33.3986 178.365 33.3986 178.26 33.3986C178.22 33.4671 178.18 33.5357 178.14 33.6063C177.505 34.4989 176.266 35.101 175.178 35.6388C175.061 35.6967 174.944 35.7546 174.824 35.8143C173.156 36.6085 171.393 37.2444 169.563 37.7832C169.441 37.8197 169.318 37.8561 169.191 37.8936C167.083 38.4975 164.901 38.9235 162.705 39.294C162.587 39.3141 162.469 39.3341 162.346 39.3547C156.326 40.3649 162.758 38.658 156.604 38.7497C156.425 38.7526 156.425 38.7526 156.241 38.7556C152.918 38.8031 149.581 38.6804 146.279 38.396C146.279 38.5127 146.279 38.6294 146.279 38.7497C146.177 38.7497 146.076 38.7497 145.971 38.7497C145.955 38.8165 145.938 38.8834 145.921 38.9524C145.798 39.2675 145.61 39.4828 145.364 39.7519C145.068 40.0777 144.804 40.3945 144.584 40.7541C144.482 40.7541 144.38 40.7541 144.276 40.7541C144.254 40.8271 144.231 40.9 144.208 40.9752C144.122 41.2258 144.122 41.2258 143.967 41.4616C143.866 41.4616 143.764 41.4616 143.659 41.4616C143.608 41.6172 143.558 41.7729 143.505 41.9332C143.403 41.9332 143.302 41.9332 143.197 41.9332C143.095 42.1278 142.994 42.3223 142.889 42.5228C142.787 42.5228 142.685 42.5228 142.581 42.5228C142.539 42.5908 142.497 42.659 142.456 42.7291C142.268 43.0009 142.072 43.2327 141.81 43.466C141.708 43.466 141.607 43.466 141.502 43.466C141.468 43.5298 141.436 43.5937 141.4 43.6595C141.123 44.0339 140.744 44.3158 140.346 44.6157C140.269 44.6754 140.192 44.7351 140.113 44.7966C139.537 45.2347 139.537 45.2347 139.19 45.2347C139.158 45.3004 139.127 45.366 139.095 45.4336C138.791 45.8238 138.437 46.0266 137.958 46.2959C137.805 46.2959 137.652 46.2959 137.495 46.2959C137.444 46.4126 137.394 46.5293 137.341 46.6496C137.122 46.7938 137.122 46.7938 136.84 46.9347C136.734 46.9873 136.629 47.0399 136.521 47.094C136.35 47.1768 136.35 47.1768 136.176 47.2612C136.059 47.3185 135.942 47.3757 135.822 47.4346C134.672 47.9867 133.483 48.4502 132.256 48.8899C132.062 48.9621 132.062 48.9621 131.864 49.0358C128.203 50.3575 123.649 50.7608 119.81 49.7474C117.411 49.0255 117.411 49.0255 116.692 48.4182C116.436 48.2996 116.179 48.1817 115.921 48.0645C114.189 47.123 113.015 45.6515 112.223 44.1735C112.168 44.0806 112.114 43.9878 112.057 43.892C111.769 43.2695 111.741 42.6268 111.74 41.9714C111.74 41.8251 111.74 41.6789 111.74 41.5281C111.74 41.3773 111.741 41.2265 111.741 41.071C111.741 40.9216 111.74 40.7721 111.74 40.6181C111.742 38.4636 111.742 38.4636 112.223 37.4527C112.28 37.2176 112.333 36.9819 112.377 36.7452C112.479 36.7452 112.58 36.7452 112.685 36.7452C112.689 36.6724 112.693 36.5996 112.697 36.5246C112.756 35.8573 112.919 35.34 113.311 34.7417C113.454 34.5068 113.539 34.2861 113.61 34.0333C113.712 34.0333 113.813 34.0333 113.918 34.0333C113.93 33.9539 113.943 33.8744 113.956 33.7924C114.107 33.3382 114.386 32.9818 114.698 32.5815C114.756 32.5055 114.814 32.4294 114.874 32.351C115.017 32.1646 115.161 31.9788 115.305 31.7931C115.407 31.7931 115.508 31.7931 115.613 31.7931C115.664 31.6374 115.715 31.4818 115.767 31.3214C115.869 31.3214 115.971 31.3214 116.075 31.3214C116.177 31.1269 116.279 30.9323 116.384 30.7319C116.485 30.7319 116.587 30.7319 116.692 30.7319C116.73 30.6637 116.768 30.5957 116.807 30.5255C117.028 30.2214 117.275 30.0172 117.616 29.7886C117.718 29.7886 117.82 29.7886 117.925 29.7886C118.001 29.6135 118.001 29.6135 118.079 29.4349C118.377 29.1769 118.377 29.1769 118.695 28.9632C118.797 28.9632 118.899 28.9632 119.003 28.9632C118.902 28.8465 118.8 28.7298 118.695 28.6095C118.665 28.2996 118.652 28.0052 118.657 27.6957C118.655 27.5736 118.655 27.5736 118.653 27.4488C118.656 26.8943 118.782 26.43 119.003 25.8976C119.038 25.7444 119.073 25.5912 119.109 25.4333C119.263 24.8857 119.539 24.3895 119.832 23.8784C119.899 23.7601 119.899 23.7601 119.968 23.6394C120.275 23.1147 120.625 22.6198 121.007 22.1245C121.108 22.1245 121.21 22.1245 121.315 22.1245C121.366 21.9689 121.416 21.8132 121.469 21.6529C121.571 21.6529 121.672 21.6529 121.777 21.6529C121.806 21.5751 121.834 21.4972 121.864 21.4171C122.413 20.5405 123.438 19.9081 124.397 19.2947C124.478 19.24 124.559 19.1853 124.642 19.1289C125.104 18.8211 125.58 18.5782 126.117 18.3546C126.413 18.2279 126.694 18.0884 126.978 17.9461C128.232 17.3432 129.625 16.9447 131.023 16.5828C131.177 16.5427 131.33 16.5025 131.488 16.4612C133.456 15.9712 135.473 15.696 137.54 15.6278ZM130.031 25.2859C129.952 25.371 129.872 25.4562 129.79 25.5439C129.638 25.6022 129.638 25.6022 129.482 25.6618C129.457 25.7591 129.431 25.8563 129.405 25.9566C129.367 26.1024 129.367 26.1024 129.328 26.2513C129.226 26.2902 129.125 26.3291 129.02 26.3692C128.79 27.0299 128.845 27.6206 129.174 28.2558C130.245 29.669 131.836 30.3417 133.797 30.8498C133.969 30.8951 134.14 30.9403 134.318 30.987C135.976 31.4545 135.976 31.4545 137.649 31.3214C137.733 31.1073 137.733 31.1073 137.776 30.8498C137.794 30.755 137.814 30.6601 137.833 30.5623C137.853 30.4627 137.871 30.3629 137.89 30.2602C137.928 30.0637 137.967 29.8671 138.007 29.6707C138.022 29.5831 138.039 29.4956 138.056 29.4054C138.112 29.1991 138.112 29.1991 138.266 29.0811C138.38 27.7337 138.367 26.6134 137.37 25.4554C136.309 24.6203 135.282 23.9934 133.701 23.9668C132.218 24.0173 131.011 24.4207 130.031 25.2859ZM125.475 34.6229C125.425 34.8174 125.374 35.012 125.321 35.2124C125.22 35.2124 125.118 35.2124 125.013 35.2124C124.983 35.2893 124.954 35.3662 124.923 35.4455C124.749 35.8932 124.574 36.3396 124.378 36.782C124.082 37.4772 124.056 38.1347 124.05 38.8602C124.047 38.9642 124.044 39.068 124.04 39.175C124.034 39.9807 124.219 40.4759 124.946 41.0857C125.571 41.4519 126.248 41.4911 127.016 41.4616C128.079 41.3162 129.087 40.8922 129.944 40.4004C129.944 40.3226 129.944 40.2448 129.944 40.1646C130.027 40.1378 130.11 40.1111 130.195 40.0835C131.709 39.4431 132.901 38.2009 133.797 37.099C133.797 36.9822 133.797 36.8655 133.797 36.7452C133.643 36.7163 133.489 36.6875 133.331 36.6577C131.815 36.3601 130.356 35.9815 128.895 35.5514C128.721 35.5005 128.547 35.4496 128.369 35.3972C127.114 35.0221 127.114 35.0221 126.605 34.7842C126.192 34.5988 125.945 34.5921 125.475 34.6229Z" fill="#000001"/>
</svg>
